<svg width="1200" height="520" viewBox="0 0 1200 520" fill="none" xmlns="http://www.w3.org/2000/svg">
  <defs>
    <linearGradient id="bg" x1="0" y1="0" x2="1200" y2="520" gradientUnits="userSpaceOnUse"><stop stop-color="#05070D"/><stop offset="0.55" stop-color="#0B1220"/><stop offset="1" stop-color="#10172A"/></linearGradient>
    <linearGradient id="brand" x1="80" y1="70" x2="180" y2="170" gradientUnits="userSpaceOnUse"><stop stop-color="#37A2FF"/><stop offset="0.52" stop-color="#378ADD"/><stop offset="1" stop-color="#6366F1"/></linearGradient>
    <radialGradient id="glow" cx="0" cy="0" r="1" gradientUnits="userSpaceOnUse" gradientTransform="translate(930 96) rotate(90) scale(280)"><stop stop-color="#37A2FF" stop-opacity="0.34"/><stop offset="1" stop-color="#37A2FF" stop-opacity="0"/></radialGradient>
    <pattern id="grid" width="34" height="34" patternUnits="userSpaceOnUse"><path d="M34 0H0V34" stroke="#94A3B8" stroke-opacity="0.055"/></pattern>
    <filter id="shadow" x="-30%" y="-30%" width="160%" height="160%"><feDropShadow dx="0" dy="24" stdDeviation="24" flood-color="#000" flood-opacity="0.45"/></filter>
  </defs>
  <rect width="1200" height="520" rx="26" fill="url(#bg)"/>
  <rect width="1200" height="520" rx="26" fill="url(#grid)"/>
  <rect width="1200" height="520" rx="26" fill="url(#glow)"/>
  <rect x="1" y="1" width="1198" height="518" rx="25" stroke="#378ADD" stroke-opacity="0.38" stroke-width="2"/>
  <g transform="translate(76 64)" filter="url(#shadow)">
    <rect width="106" height="106" rx="30" fill="url(#brand)"/>
    <path d="M34 68C38 73 45 76 54 76C65 76 73 70 73 61C73 52 66 49 56 47L50 46C45 45 42 43 42 40C42 36 46 34 52 34C59 34 64 37 67 41L74 34C69 29 61 26 52 26C41 26 33 32 33 41C33 50 40 54 51 56L57 57C63 58 66 60 66 64C66 68 62 70 55 70C48 70 42 67 38 62L34 68Z" fill="white"/>
    <path d="M28 28H78" stroke="white" stroke-opacity="0.35" stroke-width="5" stroke-linecap="round"/>
    <path d="M28 78H78" stroke="white" stroke-opacity="0.35" stroke-width="5" stroke-linecap="round"/>
  </g>
  <text x="76" y="238" fill="#F8FAFC" font-family="Inter, Segoe UI, Arial, sans-serif" font-size="72" font-weight="850" letter-spacing="-2.5">Sudo App</text>
  <text x="76" y="288" fill="#7DD3FC" font-family="Inter, Segoe UI, Arial, sans-serif" font-size="26" font-weight="750">Non-custodial Web3 messenger</text>
  <text x="76" y="338" fill="#CBD5E1" font-family="Inter, Segoe UI, Arial, sans-serif" font-size="22">Wallet-native chat, voice and video, in-line crypto payments,</text>
  <text x="76" y="372" fill="#CBD5E1" font-family="Inter, Segoe UI, Arial, sans-serif" font-size="22">and validator-secured escrow in one private app.</text>
  <g transform="translate(76 420)">
    <rect width="118" height="42" rx="21" fill="#378ADD"/><text x="59" y="27" text-anchor="middle" fill="white" font-family="Inter, Segoe UI, Arial, sans-serif" font-size="15" font-weight="800">su.do</text>
    <rect x="134" width="170" height="42" rx="21" fill="#6366F1"/><text x="219" y="27" text-anchor="middle" fill="white" font-family="Inter, Segoe UI, Arial, sans-serif" font-size="15" font-weight="800">sudochat.app</text>
    <rect x="320" width="196" height="42" rx="21" fill="#0F172A" stroke="#334155"/><text x="418" y="27" text-anchor="middle" fill="#E2E8F0" font-family="Inter, Segoe UI, Arial, sans-serif" font-size="15" font-weight="800">@sudomessenger</text>
  </g>
  <g transform="translate(770 86)" filter="url(#shadow)">
    <rect width="296" height="352" rx="38" fill="#0A0F1C" stroke="#26344D" stroke-width="2"/>
    <rect x="24" y="28" width="248" height="296" rx="30" fill="#101827"/>
    <rect x="48" y="66" width="146" height="38" rx="19" fill="#1E293B"/><text x="66" y="90" fill="#F8FAFC" font-family="Inter, Segoe UI, Arial, sans-serif" font-size="14" font-weight="750">Wallet connected</text>
    <rect x="92" y="122" width="132" height="38" rx="19" fill="#378ADD"/><text x="111" y="146" fill="white" font-family="Inter, Segoe UI, Arial, sans-serif" font-size="14" font-weight="750">Send 0.25 ETH</text>
    <rect x="48" y="188" width="200" height="72" rx="20" fill="#0B1220" stroke="#26344D"/><text x="70" y="218" fill="#94A3B8" font-family="Inter, Segoe UI, Arial, sans-serif" font-size="12" font-weight="800">ESCROW</text><text x="70" y="244" fill="#F8FAFC" font-family="Inter, Segoe UI, Arial, sans-serif" font-size="17" font-weight="800">2 of 3 validators signed</text>
    <rect x="48" y="282" width="200" height="42" rx="21" fill="#172554"/><text x="148" y="308" text-anchor="middle" fill="#BFDBFE" font-family="Inter, Segoe UI, Arial, sans-serif" font-size="14" font-weight="800">Join secure call</text>
  </g>
</svg>
